<svg xmlns="http://www.w3.org/2000/svg" xml:space="preserve" style="enable-background:new 0 0 552.76 156.97" viewBox="0 0 552.76 156.97"><path d="M177.92 44.72c-10.11-3.76-14.23-7.06-14.23-12.11 0-5.76 5.41-8.82 11.41-8.82 6.58 0 11.69 1.25 17.11 3.01.45.15.91-.11 1.01-.58l2.63-12.36a.81.81 0 0 0-.49-.9c-6.36-2.42-12.77-3.99-20.26-3.99-15.17 0-29.28 7.99-29.28 24.57 0 11.64 8.7 18.81 21.52 23.75 10.93 4 14.7 6.58 14.7 12.23 0 6.58-6.11 9.29-12.58 9.29-7.08 0-14.66-2.06-20.85-4.03a.762.762 0 0 0-.99.58l-2.6 12.23c-.08.35.14.76.47.89 6.94 2.76 14.67 5.17 23.97 5.14 15.64-.05 30.45-7.88 30.45-25.28-.01-11.27-8.59-18.44-21.99-23.62m287.34 26.82c0 .11-.04.29-.1.39-3.08 5.74-8.67 7.81-14.6 7.81-8.11 0-14.7-7.06-14.7-16.7 0-9.76 6.58-16.7 14.7-16.7 5.8 0 10.73 1.43 14.34 3.76.2.13.36.43.36.66v20.78zm16.15-37.89h-15.37c-.43 0-.78.35-.78.78v2.86l-.59.35c-3.76-3.06-8.82-5.17-16.23-5.17-16.58 0-29.51 13.52-29.51 30.57s12.46 30.57 28.34 30.57c3.83 0 7.37-.85 10.31-2.19 1.9-.86 4.78-3.2 6.03-6.13.11-.26.42-.48.7-.49h.95v6.85c0 .43.35.78.78.78h15.37c.43 0 .78-.35.78-.78V34.43c0-.43-.35-.78-.78-.78m-162.4-1.15c-8.82 0-15.64 3.41-19.64 8.11l-.7-.23v-5.92c0-.43-.35-.78-.78-.78h-15.37c-.43 0-.78.35-.78.78v57.23c0 .43.35.78.78.78h15.37c.43 0 .78-.35.78-.78V51.86c0-.17.1-.42.21-.55 3.17-3.37 7.9-4.94 13.07-4.94 6.23 0 11.41 3.53 11.41 11.76v33.55c0 .43.35.78.78.78h15.37c.43 0 .78-.35.78-.78V57.19c0-16.35-9.64-24.69-21.28-24.69m74.54 40.65c0 .14-.07.36-.15.47-3.19 4.43-8.28 6.14-13.61 6.14-8.11 0-14.7-7.05-14.7-16.7 0-9.76 6.58-16.7 14.7-16.7 5.2 0 9.86 1.09 13.35 2.95.23.12.41.44.41.69v23.15zm16.91-61.98c0-.5-.41-.85-.91-.77h-.03l-15.35 2.53c-.36.06-.65.4-.65.77v22.1l.02-.04v.07c0 .79-.54 1.08-1.2.65-3.86-2.54-8.4-3.98-14.67-3.98-16.58 0-29.51 13.52-29.51 30.57 0 15.5 10.31 28.05 24.11 30.21.4.06.78.15 1.18.19 1 .11 2.01.17 3.04.17.51 0 1.01-.05 1.51-.12 3-.23 5.78-.97 8.14-2.09 1.83-.86 4.6-3.19 5.81-6.12.11-.26.42-.49.7-.5l.9-.02v6.89c0 .43.35.78.78.78h15.36c.43 0 .78-.35.78-.78l-.01-80.51zm141.5 22.5h-17c-.3 0-.64.24-.74.52L519.7 75.94c-.1.29-.43.52-.74.52h-.85l1.06-14.43c.01-.1-.02-.25-.05-.34L508.5 34.17c-.11-.27-.43-.5-.73-.5h-16.86c-.65 0-.97.49-.72 1.09l23.83 55.59c.07.16.07.43.01.59l-3.13 7.96-.03.06c-2.94 6.21-6.7 9.05-15.27 9.02-.3 0-.88-.03-1.41-.08a.808.808 0 0 0-.82.61l-2.57 11.99c-.1.45.19.88.65.94 1.22.16 2.98.29 4.97.29 18.58 0 25.87-8.35 30.45-20.69l25.81-66.31c.23-.58-.09-1.06-.72-1.06M252.63 71.56c0 .11-.04.29-.1.39-3.08 5.74-8.67 7.81-14.6 7.81-8.11 0-14.7-7.06-14.7-16.7 0-9.76 6.58-16.7 14.7-16.7 5.8 0 10.73 1.43 14.34 3.76.2.13.36.43.36.66v20.78zm16.15-37.89h-15.37c-.43 0-.78.35-.78.78v2.86l-.59.35c-3.76-3.06-8.82-5.17-16.23-5.17-16.58 0-29.51 13.52-29.51 30.57s12.46 30.57 28.34 30.57c3.83 0 7.37-.85 10.31-2.19 1.9-.86 4.78-3.2 6.03-6.13.11-.26.42-.48.7-.49h.95v6.85c0 .43.35.78.78.78h15.37c.43 0 .78-.35.78-.78V34.45c0-.43-.35-.78-.78-.78m-42.37 96.73h2.36v20.49h-2.36zm-6.87 5.81c-.6-.36-1.23-.6-1.87-.72s-1.21-.18-1.71-.18a9.3 9.3 0 0 0-2.36.32c-.8.21-1.53.58-2.2 1.1-.67.52-1.21 1.25-1.61 2.19l2.24.8c.26-.56.71-1.09 1.35-1.58.64-.49 1.52-.74 2.65-.74 1.09 0 1.9.27 2.44.82.54.55.81 1.31.81 2.3v.08c0 .38-.14.65-.41.8-.27.15-.7.26-1.28.33-.58.06-1.34.16-2.28.28-.71.09-1.42.22-2.13.38-.7.16-1.35.39-1.93.71-.58.31-1.04.74-1.39 1.3-.35.55-.52 1.27-.52 2.15 0 1 .23 1.85.7 2.56.47.7 1.1 1.24 1.89 1.61.79.37 1.68.56 2.65.56.89 0 1.65-.13 2.27-.4.62-.27 1.12-.59 1.49-.97.37-.38.64-.74.8-1.07h.12v2.08h2.36v-10.13c0-1.22-.2-2.19-.6-2.92-.38-.75-.88-1.3-1.48-1.66zm-.26 9.12c0 .64-.17 1.25-.5 1.83-.33.58-.82 1.05-1.46 1.42-.64.37-1.43.55-2.37.55-.94 0-1.72-.21-2.33-.62-.61-.42-.92-1.04-.92-1.86 0-.6.16-1.08.48-1.43.32-.35.75-.61 1.28-.79.53-.18 1.1-.31 1.72-.39l1-.12c.41-.05.83-.11 1.27-.18.44-.07.82-.15 1.16-.25.34-.1.56-.2.66-.33v2.17zm-50.19-15.57c-.46 0-.86.16-1.19.47-.33.31-.49.69-.49 1.13 0 .44.16.82.49 1.13.33.31.73.47 1.19.47.46 0 .86-.16 1.19-.47.33-.31.5-.69.5-1.13 0-.44-.17-.82-.5-1.13-.33-.32-.73-.47-1.19-.47zm75.19 7.26c-.64-.6-1.35-1.03-2.13-1.29-.78-.27-1.57-.4-2.37-.4-1.39 0-2.6.34-3.64 1.02-1.04.68-1.84 1.62-2.42 2.82-.58 1.2-.86 2.59-.86 4.17 0 1.57.29 2.95.86 4.14.58 1.18 1.4 2.1 2.47 2.76 1.07.66 2.35.99 3.83.99 1.04 0 1.98-.16 2.81-.48.83-.32 1.53-.78 2.1-1.36.57-.58.97-1.26 1.21-2.04l-2.28-.64c-.2.53-.48.98-.85 1.34-.37.36-.8.62-1.31.8-.5.18-1.07.27-1.69.27-.95 0-1.79-.21-2.51-.63-.72-.42-1.28-1.03-1.69-1.83-.36-.73-.56-1.61-.59-2.63h11.15v-1c0-1.43-.19-2.64-.57-3.62-.37-1.01-.88-1.8-1.52-2.39zm-9.04 4.95a5.4 5.4 0 0 1 .53-2.02c.37-.74.89-1.34 1.58-1.81.68-.46 1.5-.7 2.44-.7.85 0 1.6.2 2.23.59.63.39 1.12.93 1.46 1.61.34.68.52 1.45.52 2.32h-8.76zm-67.35-6.45h2.36v15.37h-2.36zm-8.7-3.9c-1.41-.82-3.12-1.23-5.1-1.23h-6.6v20.49h6.32c2.08 0 3.85-.41 5.3-1.24 1.45-.82 2.56-2 3.32-3.54.76-1.54 1.14-3.37 1.14-5.51 0-2.12-.38-3.94-1.13-5.47-.75-1.51-1.84-2.68-3.25-3.5zm1.16 13.3c-.55 1.21-1.38 2.14-2.49 2.79-1.11.65-2.52.98-4.21.98h-3.68V132.6h3.96c1.6 0 2.94.32 4.01.97 1.07.64 1.88 1.56 2.42 2.76.54 1.2.81 2.62.81 4.28 0 1.66-.28 3.1-.82 4.31zm25.18-6.96h-.24a15.4 15.4 0 0 0-.74-1.03c-.32-.42-.77-.79-1.36-1.12-.59-.33-1.39-.5-2.39-.5-1.29 0-2.44.32-3.42.97-.99.64-1.76 1.55-2.31 2.72-.55 1.17-.83 2.54-.83 4.12 0 1.6.29 2.96.86 4.08.57 1.12 1.35 1.97 2.33 2.56.98.59 2.1.88 3.34.88 1 0 1.8-.16 2.39-.48.59-.32 1.04-.68 1.36-1.09.32-.41.56-.75.73-1.03h.2v3.12c0 1.28-.4 2.22-1.21 2.82-.81.6-1.83.9-3.07.9-.93 0-1.68-.14-2.25-.41-.57-.27-1.02-.59-1.35-.95-.33-.36-.6-.69-.81-.97l-1.88 1.32c.32.53.75 1.03 1.3 1.51.54.47 1.23.85 2.05 1.14.82.29 1.8.44 2.94.44 1.23 0 2.34-.2 3.35-.59 1-.39 1.8-1 2.4-1.83.6-.83.9-1.91.9-3.23V135.5h-2.28v2.46zm-.56 8.05c-.34.81-.84 1.44-1.49 1.87-.65.43-1.45.65-2.4.65-.99 0-1.81-.23-2.48-.7-.66-.46-1.16-1.1-1.5-1.92-.34-.82-.51-1.76-.51-2.83 0-1.04.17-1.99.49-2.84.33-.85.83-1.53 1.49-2.04s1.5-.76 2.5-.76c.96 0 1.77.24 2.42.72.65.48 1.15 1.14 1.48 1.99.33.85.5 1.82.5 2.93.01 1.14-.15 2.11-.5 2.93zm8.82-16.25c-.46 0-.86.16-1.19.47-.33.31-.49.69-.49 1.13 0 .44.16.82.49 1.13.33.31.73.47 1.19.47s.86-.16 1.19-.47c.33-.31.5-.69.5-1.13 0-.44-.17-.82-.5-1.13-.33-.32-.73-.47-1.19-.47zm11.91 19c-.17.03-.38.05-.64.05-.35 0-.68-.06-.99-.17-.31-.11-.56-.33-.76-.66-.2-.33-.3-.83-.3-1.5v-8.97h3.28v-2h-3.28v-3.68h-2.36v3.68h-2.32v2h2.32v9.61c0 .89.21 1.63.62 2.22.42.59.94 1.02 1.58 1.31.64.29 1.29.43 1.96.43.44 0 .8-.03 1.09-.09.29-.06.51-.13.67-.19l-.48-2.12c-.09.03-.22.05-.39.08zm-13.11-13.24h2.36v15.37h-2.36zm204.57.44c-.78-.42-1.69-.64-2.73-.64-1.16 0-2.11.24-2.84.72s-1.28 1.11-1.64 1.89h-.2v-2.4h-2.28v15.37h2.36v-9.25c0-.89.17-1.65.51-2.28.34-.63.81-1.1 1.4-1.43.59-.33 1.26-.49 2.02-.49 1.09 0 1.95.34 2.58 1.02.63.68.94 1.62.94 2.83v9.61h2.36v-9.77c0-1.31-.22-2.39-.65-3.25-.44-.87-1.05-1.51-1.83-1.93zm-15.66-6.2c-.46 0-.86.16-1.19.47-.33.31-.5.69-.5 1.13 0 .44.17.82.5 1.13.33.31.73.47 1.19.47.46 0 .86-.16 1.19-.47.33-.31.49-.69.49-1.13 0-.44-.17-.82-.49-1.13-.33-.32-.73-.47-1.19-.47zm33.35 8.2h-.2c-.17-.27-.42-.61-.73-1.03-.31-.42-.76-.79-1.34-1.12s-1.38-.5-2.38-.5c-1.29 0-2.43.32-3.42.97-.99.65-1.76 1.56-2.31 2.75s-.83 2.59-.83 4.2c0 1.63.28 3.04.83 4.23.55 1.19 1.32 2.11 2.3 2.76.98.65 2.11.98 3.39.98.99 0 1.78-.17 2.37-.49.59-.33 1.05-.71 1.37-1.13.32-.42.57-.77.74-1.06h.28v2.36h2.28V130.4h-2.36v7.56zm-.47 8.31c-.34.88-.84 1.57-1.49 2.07-.65.5-1.45.75-2.4.75-.99 0-1.81-.26-2.48-.79-.66-.52-1.16-1.23-1.5-2.12-.34-.89-.5-1.88-.5-2.98 0-1.08.16-2.06.49-2.93.33-.87.83-1.56 1.49-2.07.66-.51 1.5-.77 2.5-.77.96 0 1.77.24 2.42.73.65.48 1.15 1.16 1.48 2.02.33.86.5 1.87.5 3.02 0 1.17-.17 2.19-.51 3.07zm-34.08-10.75h2.36v15.37h-2.36zm79.77 8.45c-.67-.68-1.7-1.19-3.07-1.53l-2.28-.56c-.91-.23-1.57-.51-2-.85-.43-.34-.64-.8-.64-1.39 0-.66.31-1.21.94-1.64.62-.43 1.41-.64 2.35-.64.69 0 1.25.11 1.69.33.44.22.79.5 1.05.84.26.34.45.68.59 1.03l2.12-.6c-.37-1.09-.99-1.97-1.86-2.64-.87-.67-2.07-1-3.59-1-1.08 0-2.05.19-2.9.57-.85.38-1.52.9-2.01 1.57-.49.67-.74 1.43-.74 2.3 0 1.06.33 1.94.99 2.65.66.7 1.69 1.22 3.1 1.56l2.56.6c.77.18 1.35.45 1.72.82.37.36.56.81.56 1.35 0 .66-.33 1.23-.98 1.7-.65.47-1.53.71-2.63.71-.97 0-1.75-.21-2.35-.62-.6-.41-1-1.03-1.22-1.86l-2.24.56c.27 1.31.92 2.3 1.95 2.98 1.03.68 2.33 1.02 3.89 1.02 1.19 0 2.24-.2 3.14-.6.9-.4 1.6-.95 2.11-1.64.5-.69.76-1.48.76-2.36.01-1.1-.33-1.97-1.01-2.66zm-86.89-7.68c-.99-.65-2.13-.97-3.42-.97-1 0-1.79.17-2.38.5s-1.03.7-1.34 1.12c-.31.42-.55.76-.73 1.03h-.2v-7.56h-2.36v20.49h2.28v-2.36h.28c.17.28.42.63.74 1.06.32.42.78.8 1.37 1.13.59.33 1.38.49 2.37.49 1.28 0 2.41-.33 3.39-.98.98-.65 1.75-1.57 2.3-2.76.55-1.19.83-2.6.83-4.23 0-1.61-.28-3.01-.83-4.2-.54-1.19-1.31-2.11-2.3-2.76zm.28 9.89c-.34.89-.84 1.6-1.5 2.12s-1.49.79-2.48.79c-.95 0-1.75-.25-2.4-.75-.65-.5-1.15-1.19-1.49-2.07-.34-.88-.51-1.91-.51-3.07 0-1.15.17-2.15.5-3.02.33-.86.83-1.54 1.48-2.02s1.46-.73 2.42-.73c1 0 1.83.26 2.5.77.66.51 1.16 1.2 1.49 2.07.33.87.49 1.85.49 2.93 0 1.1-.16 2.09-.5 2.98zm72-10.9c-.92 0-1.75.24-2.48.71s-1.24 1.09-1.52 1.85h-.16v-2.32h-2.28v15.37h2.36v-9.73c0-.69.17-1.31.51-1.86.34-.54.8-.97 1.38-1.28.58-.31 1.25-.47 2-.47.31 0 .61.02.9.07.28.04.47.07.55.1v-2.4c-.13-.01-.33-.02-.59-.03-.28-.01-.5-.01-.67-.01zm-12.62 1.74c-.64-.6-1.35-1.03-2.13-1.29-.78-.27-1.57-.4-2.37-.4-1.39 0-2.6.34-3.64 1.02-1.04.68-1.84 1.62-2.42 2.82-.58 1.2-.87 2.59-.87 4.17 0 1.57.29 2.95.87 4.14.58 1.18 1.4 2.1 2.47 2.76 1.07.66 2.35.99 3.83.99 1.04 0 1.98-.16 2.81-.48.83-.32 1.53-.78 2.1-1.36.57-.58.97-1.26 1.21-2.04l-2.28-.64c-.2.53-.48.98-.85 1.34-.37.36-.8.62-1.31.8-.5.18-1.07.27-1.69.27-.95 0-1.79-.21-2.51-.63-.72-.42-1.28-1.03-1.69-1.83-.36-.73-.56-1.61-.59-2.63h11.15v-1c0-1.43-.19-2.64-.57-3.62-.37-1.01-.88-1.8-1.52-2.39zm-9.04 4.95a5.4 5.4 0 0 1 .53-2.02c.37-.74.89-1.34 1.58-1.81.68-.46 1.5-.7 2.44-.7.85 0 1.6.2 2.23.59.63.39 1.12.93 1.46 1.61.34.68.52 1.45.52 2.32h-8.76zm-161.92 6.56 8.49-11.13v-1.88h-11.49v2.2h8.44v.16l-8.72 11.21v1.8h12.05v-2.2h-8.77zm35.82-13.25c-.92 0-1.75.24-2.48.71s-1.24 1.09-1.52 1.85h-.16v-2.32h-2.28v15.37h2.36v-9.73c0-.69.17-1.31.5-1.86.34-.54.8-.97 1.38-1.28.58-.31 1.25-.47 2-.47.31 0 .61.02.89.07.28.04.47.07.55.1v-2.4c-.13-.01-.33-.02-.59-.03-.26-.01-.47-.01-.65-.01zm14.8 2.68h-.24a15.4 15.4 0 0 0-.74-1.03c-.32-.42-.77-.79-1.36-1.12-.59-.33-1.39-.5-2.39-.5-1.29 0-2.44.32-3.42.97-.99.64-1.76 1.55-2.31 2.72-.55 1.17-.83 2.54-.83 4.12 0 1.6.29 2.96.86 4.08.57 1.12 1.35 1.97 2.33 2.56.98.59 2.1.88 3.34.88 1 0 1.8-.16 2.39-.48.59-.32 1.04-.68 1.36-1.09a14 14 0 0 0 .74-1.03h.2v3.12c0 1.28-.4 2.22-1.21 2.82-.81.6-1.83.9-3.07.9-.93 0-1.68-.14-2.25-.41-.57-.27-1.02-.59-1.35-.95-.33-.36-.6-.69-.81-.97l-1.88 1.32c.32.53.75 1.03 1.3 1.51.54.47 1.23.85 2.05 1.14.82.29 1.8.44 2.94.44 1.23 0 2.34-.2 3.35-.59 1-.39 1.8-1 2.4-1.83.6-.83.9-1.91.9-3.23V135.5h-2.28v2.46zm-.55 8.05c-.34.81-.84 1.44-1.49 1.87-.65.43-1.45.65-2.4.65-.99 0-1.81-.23-2.48-.7-.66-.46-1.16-1.1-1.5-1.92-.34-.82-.51-1.76-.51-2.83 0-1.04.17-1.99.5-2.84.33-.85.83-1.53 1.49-2.04s1.5-.76 2.5-.76c.96 0 1.77.24 2.42.72.65.48 1.15 1.14 1.48 1.99.33.85.5 1.82.5 2.93 0 1.14-.17 2.11-.51 2.93zm46.14-10.73c-.92 0-1.75.24-2.48.71s-1.24 1.09-1.52 1.85h-.16v-2.32h-2.28v15.37h2.36v-9.73c0-.69.17-1.31.5-1.86.34-.54.8-.97 1.38-1.28.58-.31 1.25-.47 2-.47.31 0 .61.02.9.07.28.04.47.07.54.1v-2.4c-.13-.01-.33-.02-.59-.03-.26-.01-.48-.01-.65-.01zm-74.21 1.03c-1.04-.66-2.26-.99-3.65-.99-1.39 0-2.6.33-3.65.99-1.04.66-1.86 1.59-2.44 2.78-.58 1.19-.87 2.59-.87 4.19 0 1.59.29 2.98.87 4.16.58 1.19 1.4 2.11 2.44 2.77 1.04.66 2.26.99 3.65.99 1.39 0 2.6-.33 3.65-.99 1.04-.66 1.86-1.58 2.44-2.77.58-1.19.87-2.58.87-4.16 0-1.6-.29-3-.87-4.19-.59-1.19-1.4-2.12-2.44-2.78zm.46 9.84c-.33.88-.83 1.59-1.51 2.13-.68.54-1.55.81-2.6.81s-1.92-.27-2.6-.81c-.68-.54-1.18-1.25-1.51-2.13-.33-.88-.49-1.83-.49-2.86 0-1.03.16-1.98.49-2.87.33-.89.83-1.6 1.51-2.15.68-.55 1.55-.82 2.6-.82s1.92.27 2.6.82c.68.55 1.18 1.26 1.51 2.15.33.89.49 1.84.49 2.87 0 1.02-.16 1.98-.49 2.86zm40.83 1.62h-.16l-4.24-12.25h-2.56l5.68 15.37h2.4l5.68-15.37h-2.56zm20.31-10.75c-.64-.6-1.35-1.03-2.13-1.29-.78-.27-1.57-.4-2.37-.4-1.39 0-2.6.34-3.64 1.02-1.04.68-1.84 1.62-2.42 2.82-.58 1.2-.87 2.59-.87 4.17 0 1.57.29 2.95.87 4.14.58 1.18 1.4 2.1 2.47 2.76 1.07.66 2.35.99 3.83.99 1.04 0 1.98-.16 2.81-.48.83-.32 1.54-.78 2.1-1.36.57-.58.97-1.26 1.21-2.04l-2.28-.64c-.2.53-.48.98-.85 1.34s-.8.62-1.31.8c-.5.18-1.07.27-1.69.27-.95 0-1.79-.21-2.51-.63-.72-.42-1.28-1.03-1.69-1.83-.37-.73-.56-1.61-.59-2.63h11.15v-1c0-1.43-.19-2.64-.57-3.62-.37-1.01-.88-1.8-1.52-2.39zm-9.05 4.95a5.4 5.4 0 0 1 .53-2.02c.37-.74.89-1.34 1.58-1.81.68-.46 1.5-.7 2.44-.7.85 0 1.6.2 2.23.59.63.39 1.12.93 1.46 1.61.34.68.52 1.45.52 2.32h-8.76z" style="fill:#2d3d4b"/><path d="M79.38 24.41c-1.43 4.14-4.26 8.12-8.37 11.32l-9.24 7.18c-1.86 1.44-2.23 3.78-.83 5.22l6.97 7.18c7.93 8.17 5.83 21.42-3.01 28.29-.92.72-1.68 1.31-1.68 1.31-7.99 6.2-18.53 7.7-26.61 4.48-2.57-1.02-4.89-2.51-6.8-4.48L4.25 58.58c-7-7.21-5.15-18.91 4.14-26.13L42.28 6.13c10.52-8.17 25.48-8.17 33.42 0 4.83 4.98 5.94 11.83 3.68 18.28z" style="fill:#908cc3"/><linearGradient id="a" x1="40.01" x2="114.509" y1="64.597" y2="76.396" gradientUnits="userSpaceOnUse"><stop offset="0" style="stop-color:#fff;stop-opacity:.65"/><stop offset=".259" style="stop-color:#d6d5e9;stop-opacity:.65"/><stop offset=".54" style="stop-color:#b0add4;stop-opacity:.65"/><stop offset=".764" style="stop-color:#9995c8;stop-opacity:.65"/><stop offset=".901" style="stop-color:#908cc3;stop-opacity:.65"/></linearGradient><path d="M111.75 55.21 86.2 28.89c-3.97-4.09-9.69-6.13-15.74-6.13-6.05 0-12.42 2.04-17.68 6.13 0 0-.75.59-1.68 1.31-8.84 6.87-10.94 20.11-3 28.29l6.97 7.18c1.4 1.44 1.03 3.78-.83 5.23l-9.25 7.18c-2.52 1.96-4.56 4.21-6.09 6.61-4.86 7.62-4.63 16.77 1.4 22.98 3.97 4.09 9.69 6.13 15.74 6.13 6.05 0 12.42-2.04 17.68-6.13l33.89-26.32c9.3-7.22 11.15-18.92 4.14-26.14" style="fill:url(#a)"/><linearGradient id="b" x1="41.639" x2="74.361" y1="54.306" y2="59.489" gradientUnits="userSpaceOnUse"><stop offset="0" style="stop-color:#fff;stop-opacity:.3"/><stop offset="1" style="stop-color:#fff;stop-opacity:.1"/></linearGradient><path d="m60.93 48.13 6.98 7.18c7.93 8.17 5.83 21.42-3.01 28.29l-1.68 1.3c-7.99 6.21-18.54 7.71-26.62 4.48.56-1.6 1.33-3.18 2.3-4.7 1.53-2.4 3.57-4.65 6.09-6.61l9.25-7.18c1.86-1.44 2.23-3.78.83-5.23l-6.97-7.18c-7.94-8.17-5.84-21.42 3-28.28.93-.72 1.68-1.31 1.68-1.31 5.26-4.09 11.64-6.13 17.68-6.13 3.13 0 6.17.55 8.92 1.64-1.42 4.14-4.25 8.12-8.37 11.32l-9.25 7.18c-1.86 1.45-2.23 3.79-.83 5.23z" style="fill:url(#b)"/></svg>